# xmcd
#
# Track frame offsets:
#	150
#	25196
#	45019
#	64115
#	86171
#	103246
#	121175
#	142393
#	158970
#	175771
#	189856
#	203503
#	223173
#	238906
#
# Disc length: 3417 seconds
#
# Revision: 0
# Processed by: cddbd v1.5.2PL0 Copyright (c) Steve Scherf et al.
# Submitted via: EZCDAudioConverter 7.1.5.1
#
DISCID=c30d570e
DTITLE=I See Hawks in LA - Live and Never Learn
DYEAR=2018
DGENRE=Country
TTITLE0=Ballad For The Trees
TTITLE1=Live And Never Learn
TTITLE2=White Cross
TTITLE3=Stoned With Melissa
TTITLE4=Poour Me
TTITLE5=Planet Earth
TTITLE6=The Last Man In Tujunga
TTITLE7=Singing In The Wind
TTITLE8=My Parka Saved Me
TTITLE9=King Of The Rosemead Boogie
TTITLE10=Tearing Me In Two
TTITLE11=Spinning
TTITLE12=The Isolation Mountains
TTITLE13=Stop Me
EXTD=
EXTT0=
EXTT1=
EXTT2=
EXTT3=
EXTT4=
EXTT5=
EXTT6=
EXTT7=
EXTT8=
EXTT9=
EXTT10=
EXTT11=
EXTT12=
EXTT13=
PLAYORDER=
